<svg xmlns="http://www.w3.org/2000/svg" xmlns:xlink="http://www.w3.org/1999/xlink" class="httpgd" width="1122.00" height="902.00" viewBox="0 0 1122.00 902.00">
<defs>
  <style type='text/css'><![CDATA[
    .httpgd line, .httpgd polyline, .httpgd polygon, .httpgd path, .httpgd rect, .httpgd circle {
      fill: none;
      stroke: #000000;
      stroke-linecap: round;
      stroke-linejoin: round;
      stroke-miterlimit: 10.00;
    }
  ]]></style>
<clipPath id="c0"><rect x="0.00" y="0.00" width="1122.00" height="902.00"/></clipPath>
<clipPath id="c1"><rect x="57.60" y="627.73" width="110.20" height="238.27"/></clipPath>
<clipPath id="c2"><rect x="0.00" y="0.00" width="1122.00" height="902.00"/></clipPath>
<clipPath id="c3"><rect x="239.80" y="627.73" width="110.20" height="238.27"/></clipPath>
<clipPath id="c4"><rect x="0.00" y="0.00" width="1122.00" height="902.00"/></clipPath>
<clipPath id="c5"><rect x="422.00" y="627.73" width="110.20" height="238.27"/></clipPath>
<clipPath id="c6"><rect x="0.00" y="0.00" width="1122.00" height="902.00"/></clipPath>
<clipPath id="c7"><rect x="604.20" y="627.73" width="110.20" height="238.27"/></clipPath>
<clipPath id="c8"><rect x="0.00" y="0.00" width="1122.00" height="902.00"/></clipPath>
<clipPath id="c9"><rect x="786.40" y="627.73" width="110.20" height="238.27"/></clipPath>
<clipPath id="c10"><rect x="0.00" y="0.00" width="1122.00" height="902.00"/></clipPath>
<clipPath id="c11"><rect x="968.60" y="627.73" width="110.20" height="238.27"/></clipPath>
<clipPath id="c12"><rect x="0.00" y="0.00" width="1122.00" height="902.00"/></clipPath>
</defs>
<rect width="100%" height="100%" style="stroke: none;fill: #FFFFFF;"/>
<g clip-path="url(#c0)">
<polyline points="925.40,73.97 378.80,221.90" style="stroke-width: 0.75;"/>
<polyline points="925.40,73.97 1016.50,665.70" style="stroke-width: 0.75;"/>
<polygon points="885.95,73.97 886.74,69.67 887.53,67.92 888.32,66.60 889.11,65.50 889.90,64.55 890.69,63.71 891.47,62.94 892.26,62.25 893.05,61.60 893.84,61.01 894.63,60.45 895.42,59.93 896.21,59.44 897.00,58.98 897.79,58.54 898.58,58.13 899.36,57.74 900.15,57.37 900.94,57.02 901.73,56.69 901.73,56.69 905.68,55.26 909.62,54.17 913.57,53.36 917.51,52.80 921.46,52.47 925.40,52.37 929.34,52.47 933.29,52.80 937.23,53.36 941.18,54.17 945.12,55.26 949.07,56.69 949.07,56.69 949.86,57.02 950.65,57.37 951.44,57.74 952.22,58.13 953.01,58.54 953.80,58.98 954.59,59.44 955.38,59.93 956.17,60.45 956.96,61.01 957.75,61.60 958.54,62.25 959.33,62.94 960.11,63.71 960.90,64.55 961.69,65.50 962.48,66.60 963.27,67.92 964.06,69.67 964.85,73.97 964.85,73.97 964.06,78.27 963.27,80.01 962.48,81.34 961.69,82.43 960.90,83.38 960.11,84.23 959.33,84.99 958.54,85.69 957.75,86.33 956.96,86.93 956.17,87.48 955.38,88.01 954.59,88.49 953.80,88.96 953.01,89.39 952.22,89.80 951.44,90.19 950.65,90.56 949.86,90.91 949.07,91.25 949.07,91.25 945.12,92.67 941.18,93.76 937.23,94.57 933.29,95.13 929.34,95.46 925.40,95.57 921.46,95.46 917.51,95.13 913.57,94.57 909.62,93.76 905.68,92.67 901.73,91.25 901.73,91.25 900.94,90.91 900.15,90.56 899.36,90.19 898.58,89.80 897.79,89.39 897.00,88.96 896.21,88.49 895.42,88.01 894.63,87.48 893.84,86.93 893.05,86.33 892.26,85.69 891.47,84.99 890.69,84.23 889.90,83.38 889.11,82.43 888.32,81.34 887.53,80.01 886.74,78.27 885.95,73.97" style="stroke-width: 0.75;fill: #FFFFFF;" />
<g><text x="925.40" y="78.34" text-anchor="middle" style="font-family: TeX Gyre Heros;font-size: 12.00px;font-weight: 0;" textLength="46.70px" lengthAdjust="spacingAndGlyphs">Na_to_K</text></g>
<rect x="918.20" y="45.17" width="14.40" height="14.40" style="stroke-width: 0.75;fill: #FFFFFF;"/>
<g><text x="925.40" y="56.74" text-anchor="middle" style="font-family: TeX Gyre Heros;font-size: 12.00px;font-weight: 0;" textLength="6.67px" lengthAdjust="spacingAndGlyphs">1</text></g>
<rect x="624.13" y="140.73" width="55.94" height="14.40" style="stroke-width: 0.75;stroke: none;fill: #FFFFFF;"/>
<g><text x="633.58" y="152.05" style="font-family: Nimbus Sans L;font-size: 12.00px;font-weight: 0;" textLength="7.01px" lengthAdjust="spacingAndGlyphs">≤</text></g>
<g><text x="643.36" y="152.05" style="font-family: TeX Gyre Heros;font-size: 12.00px;font-weight: 0;" textLength="36.71px" lengthAdjust="spacingAndGlyphs">14.642</text></g>
<rect x="908.82" y="140.73" width="55.94" height="14.40" style="stroke-width: 0.75;stroke: none;fill: #FFFFFF;"/>
<g><text x="918.27" y="152.05" style="font-family: Nimbus Sans L;font-size: 12.00px;font-weight: 0;" textLength="7.01px" lengthAdjust="spacingAndGlyphs">&gt;</text></g>
<g><text x="928.05" y="152.05" style="font-family: TeX Gyre Heros;font-size: 12.00px;font-weight: 0;" textLength="36.71px" lengthAdjust="spacingAndGlyphs">14.642</text></g>
<polyline points="378.80,221.90 196.60,369.83" style="stroke-width: 0.75;"/>
<polyline points="378.80,221.90 561.00,369.83" style="stroke-width: 0.75;"/>
<polygon points="339.35,221.90 340.14,217.60 340.93,215.85 341.72,214.53 342.51,213.43 343.30,212.48 344.09,211.64 344.87,210.88 345.66,210.18 346.45,209.54 347.24,208.94 348.03,208.38 348.82,207.86 349.61,207.37 350.40,206.91 351.19,206.47 351.98,206.06 352.76,205.67 353.55,205.30 354.34,204.95 355.13,204.62 355.13,204.62 359.08,203.19 363.02,202.10 366.97,201.29 370.91,200.74 374.86,200.41 378.80,200.30 382.74,200.41 386.69,200.74 390.63,201.29 394.58,202.10 398.52,203.19 402.47,204.62 402.47,204.62 403.26,204.95 404.05,205.30 404.84,205.67 405.62,206.06 406.41,206.47 407.20,206.91 407.99,207.37 408.78,207.86 409.57,208.38 410.36,208.94 411.15,209.54 411.94,210.18 412.73,210.88 413.51,211.64 414.30,212.48 415.09,213.43 415.88,214.53 416.67,215.85 417.46,217.60 418.25,221.90 418.25,221.90 417.46,226.20 416.67,227.95 415.88,229.27 415.09,230.37 414.30,231.32 413.51,232.16 412.73,232.92 411.94,233.62 411.15,234.26 410.36,234.86 409.57,235.42 408.78,235.94 407.99,236.43 407.20,236.89 406.41,237.33 405.62,237.74 404.84,238.13 404.05,238.50 403.26,238.85 402.47,239.18 402.47,239.18 398.52,240.61 394.58,241.70 390.63,242.51 386.69,243.06 382.74,243.39 378.80,243.50 374.86,243.39 370.91,243.06 366.97,242.51 363.02,241.70 359.08,240.61 355.13,239.18 355.13,239.18 354.34,238.85 353.55,238.50 352.76,238.13 351.98,237.74 351.19,237.33 350.40,236.89 349.61,236.43 348.82,235.94 348.03,235.42 347.24,234.86 346.45,234.26 345.66,233.62 344.87,232.92 344.09,232.16 343.30,231.32 342.51,230.37 341.72,229.27 340.93,227.95 340.14,226.20 339.35,221.90" style="stroke-width: 0.75;fill: #FFFFFF;" />
<g><text x="378.80" y="226.27" text-anchor="middle" style="font-family: TeX Gyre Heros;font-size: 12.00px;font-weight: 0;" textLength="16.01px" lengthAdjust="spacingAndGlyphs">BP</text></g>
<rect x="371.60" y="193.10" width="14.40" height="14.40" style="stroke-width: 0.75;fill: #FFFFFF;"/>
<g><text x="378.80" y="204.67" text-anchor="middle" style="font-family: TeX Gyre Heros;font-size: 12.00px;font-weight: 0;" textLength="6.67px" lengthAdjust="spacingAndGlyphs">2</text></g>
<rect x="272.70" y="288.67" width="30.00" height="14.40" style="stroke-width: 0.75;stroke: none;fill: #FFFFFF;"/>
<g><text x="287.70" y="300.24" text-anchor="middle" style="font-family: TeX Gyre Heros;font-size: 12.00px;font-weight: 0;" textLength="30.00px" lengthAdjust="spacingAndGlyphs">HIGH</text></g>
<rect x="427.23" y="288.67" width="85.34" height="14.40" style="stroke-width: 0.75;stroke: none;fill: #FFFFFF;"/>
<g><text x="469.90" y="300.24" text-anchor="middle" style="font-family: TeX Gyre Heros;font-size: 12.00px;font-weight: 0;" textLength="85.34px" lengthAdjust="spacingAndGlyphs">LOW, NORMAL</text></g>
<polyline points="196.60,369.83 105.50,665.70" style="stroke-width: 0.75;"/>
<polyline points="196.60,369.83 287.70,665.70" style="stroke-width: 0.75;"/>
<polygon points="157.15,369.83 157.94,365.53 158.73,363.79 159.52,362.46 160.31,361.37 161.10,360.42 161.89,359.57 162.67,358.81 163.46,358.11 164.25,357.47 165.04,356.87 165.83,356.32 166.62,355.79 167.41,355.31 168.20,354.84 168.99,354.41 169.78,354.00 170.56,353.61 171.35,353.24 172.14,352.89 172.93,352.55 172.93,352.55 176.88,351.13 180.82,350.04 184.77,349.23 188.71,348.67 192.66,348.34 196.60,348.23 200.54,348.34 204.49,348.67 208.43,349.23 212.38,350.04 216.32,351.13 220.27,352.55 220.27,352.55 221.06,352.89 221.85,353.24 222.64,353.61 223.42,354.00 224.21,354.41 225.00,354.84 225.79,355.31 226.58,355.79 227.37,356.32 228.16,356.87 228.95,357.47 229.74,358.11 230.53,358.81 231.31,359.57 232.10,360.42 232.89,361.37 233.68,362.46 234.47,363.79 235.26,365.53 236.05,369.83 236.05,369.83 235.26,374.13 234.47,375.88 233.68,377.20 232.89,378.30 232.10,379.25 231.31,380.09 230.53,380.86 229.74,381.55 228.95,382.20 228.16,382.79 227.37,383.35 226.58,383.87 225.79,384.36 225.00,384.82 224.21,385.26 223.42,385.67 222.64,386.06 221.85,386.43 221.06,386.78 220.27,387.11 220.27,387.11 216.32,388.54 212.38,389.63 208.43,390.44 204.49,391.00 200.54,391.33 196.60,391.43 192.66,391.33 188.71,391.00 184.77,390.44 180.82,389.63 176.88,388.54 172.93,387.11 172.93,387.11 172.14,386.78 171.35,386.43 170.56,386.06 169.78,385.67 168.99,385.26 168.20,384.82 167.41,384.36 166.62,383.87 165.83,383.35 165.04,382.79 164.25,382.20 163.46,381.55 162.67,380.86 161.89,380.09 161.10,379.25 160.31,378.30 159.52,377.20 158.73,375.88 157.94,374.13 157.15,369.83" style="stroke-width: 0.75;fill: #FFFFFF;" />
<g><text x="196.60" y="374.21" text-anchor="middle" style="font-family: TeX Gyre Heros;font-size: 12.00px;font-weight: 0;" textLength="21.36px" lengthAdjust="spacingAndGlyphs">Age</text></g>
<rect x="189.40" y="341.03" width="14.40" height="14.40" style="stroke-width: 0.75;fill: #FFFFFF;"/>
<g><text x="196.60" y="352.61" text-anchor="middle" style="font-family: TeX Gyre Heros;font-size: 12.00px;font-weight: 0;" textLength="6.67px" lengthAdjust="spacingAndGlyphs">3</text></g>
<rect x="134.76" y="510.57" width="32.58" height="14.40" style="stroke-width: 0.75;stroke: none;fill: #FFFFFF;"/>
<g><text x="144.21" y="521.89" style="font-family: Nimbus Sans L;font-size: 12.00px;font-weight: 0;" textLength="7.01px" lengthAdjust="spacingAndGlyphs">≤</text></g>
<g><text x="153.99" y="521.89" style="font-family: TeX Gyre Heros;font-size: 12.00px;font-weight: 0;" textLength="13.35px" lengthAdjust="spacingAndGlyphs">50</text></g>
<rect x="225.86" y="510.57" width="32.58" height="14.40" style="stroke-width: 0.75;stroke: none;fill: #FFFFFF;"/>
<g><text x="235.31" y="521.89" style="font-family: Nimbus Sans L;font-size: 12.00px;font-weight: 0;" textLength="7.01px" lengthAdjust="spacingAndGlyphs">&gt;</text></g>
<g><text x="245.09" y="521.89" style="font-family: TeX Gyre Heros;font-size: 12.00px;font-weight: 0;" textLength="13.35px" lengthAdjust="spacingAndGlyphs">50</text></g>
<rect x="14.40" y="613.33" width="182.20" height="252.67" style="stroke-width: 0.75;stroke: none;fill: #FFFFFF;"/>
<g><text x="112.70" y="624.91" text-anchor="middle" style="font-family: TeX Gyre Heros;font-size: 12.00px;font-weight: 0;" textLength="83.71px" lengthAdjust="spacingAndGlyphs">Node 4 (n = 23)</text></g>
<polyline points="71.38,866.00 154.02,866.00" style="stroke-width: 0.75;"/>
<line x1="71.38" y1="866.00" x2="71.38" y2="873.20" style="stroke-width: 0.75;"/>
<line x1="92.04" y1="866.00" x2="92.04" y2="873.20" style="stroke-width: 0.75;"/>
<line x1="112.70" y1="866.00" x2="112.70" y2="873.20" style="stroke-width: 0.75;"/>
<line x1="133.36" y1="866.00" x2="133.36" y2="873.20" style="stroke-width: 0.75;"/>
<line x1="154.02" y1="866.00" x2="154.02" y2="873.20" style="stroke-width: 0.75;"/>
<g><text x="71.38" y="889.15" text-anchor="middle" style="font-family: TeX Gyre Heros;font-size: 12.00px;font-weight: 0;" textLength="32.03px" lengthAdjust="spacingAndGlyphs">drugA</text></g>
<g><text x="112.70" y="889.15" text-anchor="middle" style="font-family: TeX Gyre Heros;font-size: 12.00px;font-weight: 0;" textLength="32.68px" lengthAdjust="spacingAndGlyphs">drugC</text></g>
<g><text x="154.02" y="889.15" text-anchor="middle" style="font-family: TeX Gyre Heros;font-size: 12.00px;font-weight: 0;" textLength="32.03px" lengthAdjust="spacingAndGlyphs">drugY</text></g>
<polyline points="57.60,866.00 57.60,649.39" style="stroke-width: 0.75;"/>
<line x1="57.60" y1="866.00" x2="50.40" y2="866.00" style="stroke-width: 0.75;"/>
<line x1="57.60" y1="822.68" x2="50.40" y2="822.68" style="stroke-width: 0.75;"/>
<line x1="57.60" y1="779.36" x2="50.40" y2="779.36" style="stroke-width: 0.75;"/>
<line x1="57.60" y1="736.04" x2="50.40" y2="736.04" style="stroke-width: 0.75;"/>
<line x1="57.60" y1="692.72" x2="50.40" y2="692.72" style="stroke-width: 0.75;"/>
<line x1="57.60" y1="649.39" x2="50.40" y2="649.39" style="stroke-width: 0.75;"/>
<g><text x="43.20" y="870.37" text-anchor="end" style="font-family: TeX Gyre Heros;font-size: 12.00px;font-weight: 0;" textLength="6.67px" lengthAdjust="spacingAndGlyphs">0</text></g>
<g><text x="43.20" y="827.05" text-anchor="end" style="font-family: TeX Gyre Heros;font-size: 12.00px;font-weight: 0;" textLength="16.68px" lengthAdjust="spacingAndGlyphs">0.2</text></g>
<g><text x="43.20" y="783.73" text-anchor="end" style="font-family: TeX Gyre Heros;font-size: 12.00px;font-weight: 0;" textLength="16.68px" lengthAdjust="spacingAndGlyphs">0.4</text></g>
<g><text x="43.20" y="740.41" text-anchor="end" style="font-family: TeX Gyre Heros;font-size: 12.00px;font-weight: 0;" textLength="16.68px" lengthAdjust="spacingAndGlyphs">0.6</text></g>
<g><text x="43.20" y="697.09" text-anchor="end" style="font-family: TeX Gyre Heros;font-size: 12.00px;font-weight: 0;" textLength="16.68px" lengthAdjust="spacingAndGlyphs">0.8</text></g>
<g><text x="43.20" y="653.77" text-anchor="end" style="font-family: TeX Gyre Heros;font-size: 12.00px;font-weight: 0;" textLength="6.67px" lengthAdjust="spacingAndGlyphs">1</text></g>
<rect x="57.60" y="627.73" width="110.20" height="238.27" style="stroke-width: 0.75;"/>
</g><g clip-path="url(#c1)">
<rect x="64.49" y="649.39" width="13.77" height="216.61" style="stroke-width: 0.75;fill: #4D4D4D;"/>
<rect x="85.15" y="866.00" width="13.77" height="0.00" style="stroke-width: 0.75;fill: #888888;"/>
<rect x="105.81" y="866.00" width="13.77" height="0.00" style="stroke-width: 0.75;fill: #AEAEAE;"/>
<rect x="126.47" y="866.00" width="13.78" height="0.00" style="stroke-width: 0.75;fill: #CCCCCC;"/>
<rect x="147.14" y="866.00" width="13.78" height="0.00" style="stroke-width: 0.75;fill: #E6E6E6;"/>
<rect x="57.60" y="627.73" width="110.20" height="238.27" style="stroke-width: 0.75;"/>
</g><g clip-path="url(#c2)">
<rect x="196.60" y="613.33" width="182.20" height="252.67" style="stroke-width: 0.75;stroke: none;fill: #FFFFFF;"/>
<g><text x="294.90" y="624.91" text-anchor="middle" style="font-family: TeX Gyre Heros;font-size: 12.00px;font-weight: 0;" textLength="83.71px" lengthAdjust="spacingAndGlyphs">Node 5 (n = 16)</text></g>
<polyline points="253.57,866.00 336.22,866.00" style="stroke-width: 0.75;"/>
<line x1="253.57" y1="866.00" x2="253.57" y2="873.20" style="stroke-width: 0.75;"/>
<line x1="274.24" y1="866.00" x2="274.24" y2="873.20" style="stroke-width: 0.75;"/>
<line x1="294.90" y1="866.00" x2="294.90" y2="873.20" style="stroke-width: 0.75;"/>
<line x1="315.56" y1="866.00" x2="315.56" y2="873.20" style="stroke-width: 0.75;"/>
<line x1="336.22" y1="866.00" x2="336.22" y2="873.20" style="stroke-width: 0.75;"/>
<g><text x="253.57" y="889.15" text-anchor="middle" style="font-family: TeX Gyre Heros;font-size: 12.00px;font-weight: 0;" textLength="32.03px" lengthAdjust="spacingAndGlyphs">drugA</text></g>
<g><text x="294.90" y="889.15" text-anchor="middle" style="font-family: TeX Gyre Heros;font-size: 12.00px;font-weight: 0;" textLength="32.68px" lengthAdjust="spacingAndGlyphs">drugC</text></g>
<g><text x="336.22" y="889.15" text-anchor="middle" style="font-family: TeX Gyre Heros;font-size: 12.00px;font-weight: 0;" textLength="32.03px" lengthAdjust="spacingAndGlyphs">drugY</text></g>
<polyline points="239.80,866.00 239.80,649.39" style="stroke-width: 0.75;"/>
<line x1="239.80" y1="866.00" x2="232.60" y2="866.00" style="stroke-width: 0.75;"/>
<line x1="239.80" y1="822.68" x2="232.60" y2="822.68" style="stroke-width: 0.75;"/>
<line x1="239.80" y1="779.36" x2="232.60" y2="779.36" style="stroke-width: 0.75;"/>
<line x1="239.80" y1="736.04" x2="232.60" y2="736.04" style="stroke-width: 0.75;"/>
<line x1="239.80" y1="692.72" x2="232.60" y2="692.72" style="stroke-width: 0.75;"/>
<line x1="239.80" y1="649.39" x2="232.60" y2="649.39" style="stroke-width: 0.75;"/>
<g><text x="225.40" y="870.37" text-anchor="end" style="font-family: TeX Gyre Heros;font-size: 12.00px;font-weight: 0;" textLength="6.67px" lengthAdjust="spacingAndGlyphs">0</text></g>
<g><text x="225.40" y="827.05" text-anchor="end" style="font-family: TeX Gyre Heros;font-size: 12.00px;font-weight: 0;" textLength="16.68px" lengthAdjust="spacingAndGlyphs">0.2</text></g>
<g><text x="225.40" y="783.73" text-anchor="end" style="font-family: TeX Gyre Heros;font-size: 12.00px;font-weight: 0;" textLength="16.68px" lengthAdjust="spacingAndGlyphs">0.4</text></g>
<g><text x="225.40" y="740.41" text-anchor="end" style="font-family: TeX Gyre Heros;font-size: 12.00px;font-weight: 0;" textLength="16.68px" lengthAdjust="spacingAndGlyphs">0.6</text></g>
<g><text x="225.40" y="697.09" text-anchor="end" style="font-family: TeX Gyre Heros;font-size: 12.00px;font-weight: 0;" textLength="16.68px" lengthAdjust="spacingAndGlyphs">0.8</text></g>
<g><text x="225.40" y="653.77" text-anchor="end" style="font-family: TeX Gyre Heros;font-size: 12.00px;font-weight: 0;" textLength="6.67px" lengthAdjust="spacingAndGlyphs">1</text></g>
<rect x="239.80" y="627.73" width="110.20" height="238.27" style="stroke-width: 0.75;"/>
</g><g clip-path="url(#c3)">
<rect x="246.69" y="866.00" width="13.78" height="0.00" style="stroke-width: 0.75;fill: #4D4D4D;"/>
<rect x="267.35" y="649.39" width="13.77" height="216.61" style="stroke-width: 0.75;fill: #888888;"/>
<rect x="288.01" y="866.00" width="13.77" height="0.00" style="stroke-width: 0.75;fill: #AEAEAE;"/>
<rect x="308.67" y="866.00" width="13.77" height="0.00" style="stroke-width: 0.75;fill: #CCCCCC;"/>
<rect x="329.34" y="866.00" width="13.77" height="0.00" style="stroke-width: 0.75;fill: #E6E6E6;"/>
<rect x="239.80" y="627.73" width="110.20" height="238.27" style="stroke-width: 0.75;"/>
</g><g clip-path="url(#c4)">
<polyline points="561.00,369.83 469.90,665.70" style="stroke-width: 0.75;"/>
<polyline points="561.00,369.83 743.20,517.77" style="stroke-width: 0.75;"/>
<polygon points="521.55,369.83 522.34,365.53 523.13,363.79 523.92,362.46 524.71,361.37 525.50,360.42 526.29,359.57 527.07,358.81 527.86,358.11 528.65,357.47 529.44,356.87 530.23,356.32 531.02,355.79 531.81,355.31 532.60,354.84 533.39,354.41 534.18,354.00 534.96,353.61 535.75,353.24 536.54,352.89 537.33,352.55 537.33,352.55 541.28,351.13 545.22,350.04 549.17,349.23 553.11,348.67 557.06,348.34 561.00,348.23 564.94,348.34 568.89,348.67 572.83,349.23 576.78,350.04 580.72,351.13 584.67,352.55 584.67,352.55 585.46,352.89 586.25,353.24 587.04,353.61 587.82,354.00 588.61,354.41 589.40,354.84 590.19,355.31 590.98,355.79 591.77,356.32 592.56,356.87 593.35,357.47 594.14,358.11 594.93,358.81 595.71,359.57 596.50,360.42 597.29,361.37 598.08,362.46 598.87,363.79 599.66,365.53 600.45,369.83 600.45,369.83 599.66,374.13 598.87,375.88 598.08,377.20 597.29,378.30 596.50,379.25 595.71,380.09 594.93,380.86 594.14,381.55 593.35,382.20 592.56,382.79 591.77,383.35 590.98,383.87 590.19,384.36 589.40,384.82 588.61,385.26 587.82,385.67 587.04,386.06 586.25,386.43 585.46,386.78 584.67,387.11 584.67,387.11 580.72,388.54 576.78,389.63 572.83,390.44 568.89,391.00 564.94,391.33 561.00,391.43 557.06,391.33 553.11,391.00 549.17,390.44 545.22,389.63 541.28,388.54 537.33,387.11 537.33,387.11 536.54,386.78 535.75,386.43 534.96,386.06 534.18,385.67 533.39,385.26 532.60,384.82 531.81,384.36 531.02,383.87 530.23,383.35 529.44,382.79 528.65,382.20 527.86,381.55 527.07,380.86 526.29,380.09 525.50,379.25 524.71,378.30 523.92,377.20 523.13,375.88 522.34,374.13 521.55,369.83" style="stroke-width: 0.75;fill: #FFFFFF;" />
<g><text x="561.00" y="374.21" text-anchor="middle" style="font-family: TeX Gyre Heros;font-size: 12.00px;font-weight: 0;" textLength="16.01px" lengthAdjust="spacingAndGlyphs">BP</text></g>
<rect x="553.80" y="341.03" width="14.40" height="14.40" style="stroke-width: 0.75;fill: #FFFFFF;"/>
<g><text x="561.00" y="352.61" text-anchor="middle" style="font-family: TeX Gyre Heros;font-size: 12.00px;font-weight: 0;" textLength="6.67px" lengthAdjust="spacingAndGlyphs">6</text></g>
<rect x="512.56" y="436.60" width="51.34" height="14.40" style="stroke-width: 0.75;stroke: none;fill: #FFFFFF;"/>
<g><text x="538.22" y="448.17" text-anchor="middle" style="font-family: TeX Gyre Heros;font-size: 12.00px;font-weight: 0;" textLength="51.34px" lengthAdjust="spacingAndGlyphs">NORMAL</text></g>
<rect x="638.43" y="436.60" width="27.34" height="14.40" style="stroke-width: 0.75;stroke: none;fill: #FFFFFF;"/>
<g><text x="652.10" y="448.17" text-anchor="middle" style="font-family: TeX Gyre Heros;font-size: 12.00px;font-weight: 0;" textLength="27.34px" lengthAdjust="spacingAndGlyphs">LOW</text></g>
<rect x="378.80" y="613.33" width="182.20" height="252.67" style="stroke-width: 0.75;stroke: none;fill: #FFFFFF;"/>
<g><text x="477.10" y="624.91" text-anchor="middle" style="font-family: TeX Gyre Heros;font-size: 12.00px;font-weight: 0;" textLength="83.71px" lengthAdjust="spacingAndGlyphs">Node 7 (n = 36)</text></g>
<polyline points="435.77,866.00 518.42,866.00" style="stroke-width: 0.75;"/>
<line x1="435.77" y1="866.00" x2="435.77" y2="873.20" style="stroke-width: 0.75;"/>
<line x1="456.44" y1="866.00" x2="456.44" y2="873.20" style="stroke-width: 0.75;"/>
<line x1="477.10" y1="866.00" x2="477.10" y2="873.20" style="stroke-width: 0.75;"/>
<line x1="497.76" y1="866.00" x2="497.76" y2="873.20" style="stroke-width: 0.75;"/>
<line x1="518.42" y1="866.00" x2="518.42" y2="873.20" style="stroke-width: 0.75;"/>
<g><text x="435.77" y="889.15" text-anchor="middle" style="font-family: TeX Gyre Heros;font-size: 12.00px;font-weight: 0;" textLength="32.03px" lengthAdjust="spacingAndGlyphs">drugA</text></g>
<g><text x="477.10" y="889.15" text-anchor="middle" style="font-family: TeX Gyre Heros;font-size: 12.00px;font-weight: 0;" textLength="32.68px" lengthAdjust="spacingAndGlyphs">drugC</text></g>
<g><text x="518.42" y="889.15" text-anchor="middle" style="font-family: TeX Gyre Heros;font-size: 12.00px;font-weight: 0;" textLength="32.03px" lengthAdjust="spacingAndGlyphs">drugY</text></g>
<polyline points="422.00,866.00 422.00,649.39" style="stroke-width: 0.75;"/>
<line x1="422.00" y1="866.00" x2="414.80" y2="866.00" style="stroke-width: 0.75;"/>
<line x1="422.00" y1="822.68" x2="414.80" y2="822.68" style="stroke-width: 0.75;"/>
<line x1="422.00" y1="779.36" x2="414.80" y2="779.36" style="stroke-width: 0.75;"/>
<line x1="422.00" y1="736.04" x2="414.80" y2="736.04" style="stroke-width: 0.75;"/>
<line x1="422.00" y1="692.72" x2="414.80" y2="692.72" style="stroke-width: 0.75;"/>
<line x1="422.00" y1="649.39" x2="414.80" y2="649.39" style="stroke-width: 0.75;"/>
<g><text x="407.60" y="870.37" text-anchor="end" style="font-family: TeX Gyre Heros;font-size: 12.00px;font-weight: 0;" textLength="6.67px" lengthAdjust="spacingAndGlyphs">0</text></g>
<g><text x="407.60" y="827.05" text-anchor="end" style="font-family: TeX Gyre Heros;font-size: 12.00px;font-weight: 0;" textLength="16.68px" lengthAdjust="spacingAndGlyphs">0.2</text></g>
<g><text x="407.60" y="783.73" text-anchor="end" style="font-family: TeX Gyre Heros;font-size: 12.00px;font-weight: 0;" textLength="16.68px" lengthAdjust="spacingAndGlyphs">0.4</text></g>
<g><text x="407.60" y="740.41" text-anchor="end" style="font-family: TeX Gyre Heros;font-size: 12.00px;font-weight: 0;" textLength="16.68px" lengthAdjust="spacingAndGlyphs">0.6</text></g>
<g><text x="407.60" y="697.09" text-anchor="end" style="font-family: TeX Gyre Heros;font-size: 12.00px;font-weight: 0;" textLength="16.68px" lengthAdjust="spacingAndGlyphs">0.8</text></g>
<g><text x="407.60" y="653.77" text-anchor="end" style="font-family: TeX Gyre Heros;font-size: 12.00px;font-weight: 0;" textLength="6.67px" lengthAdjust="spacingAndGlyphs">1</text></g>
<rect x="422.00" y="627.73" width="110.20" height="238.27" style="stroke-width: 0.75;"/>
</g><g clip-path="url(#c5)">
<rect x="428.89" y="866.00" width="13.77" height="0.00" style="stroke-width: 0.75;fill: #4D4D4D;"/>
<rect x="449.55" y="866.00" width="13.77" height="0.00" style="stroke-width: 0.75;fill: #888888;"/>
<rect x="470.21" y="866.00" width="13.77" height="0.00" style="stroke-width: 0.75;fill: #AEAEAE;"/>
<rect x="490.88" y="649.39" width="13.77" height="216.61" style="stroke-width: 0.75;fill: #CCCCCC;"/>
<rect x="511.54" y="866.00" width="13.78" height="0.00" style="stroke-width: 0.75;fill: #E6E6E6;"/>
<rect x="422.00" y="627.73" width="110.20" height="238.27" style="stroke-width: 0.75;"/>
</g><g clip-path="url(#c6)">
<polyline points="743.20,517.77 652.10,665.70" style="stroke-width: 0.75;"/>
<polyline points="743.20,517.77 834.30,665.70" style="stroke-width: 0.75;"/>
<polygon points="703.75,517.77 704.54,513.47 705.33,511.72 706.12,510.40 706.91,509.30 707.70,508.35 708.49,507.51 709.27,506.74 710.06,506.05 710.85,505.40 711.64,504.81 712.43,504.25 713.22,503.73 714.01,503.24 714.80,502.78 715.59,502.34 716.38,501.93 717.16,501.54 717.95,501.17 718.74,500.82 719.53,500.49 719.53,500.49 723.48,499.06 727.42,497.97 731.37,497.16 735.31,496.60 739.26,496.27 743.20,496.17 747.14,496.27 751.09,496.60 755.03,497.16 758.98,497.97 762.92,499.06 766.87,500.49 766.87,500.49 767.66,500.82 768.45,501.17 769.24,501.54 770.02,501.93 770.81,502.34 771.60,502.78 772.39,503.24 773.18,503.73 773.97,504.25 774.76,504.81 775.55,505.40 776.34,506.05 777.13,506.74 777.91,507.51 778.70,508.35 779.49,509.30 780.28,510.40 781.07,511.72 781.86,513.47 782.65,517.77 782.65,517.77 781.86,522.07 781.07,523.81 780.28,525.14 779.49,526.23 778.70,527.18 777.91,528.03 777.13,528.79 776.34,529.49 775.55,530.13 774.76,530.73 773.97,531.28 773.18,531.81 772.39,532.29 771.60,532.76 770.81,533.19 770.02,533.60 769.24,533.99 768.45,534.36 767.66,534.71 766.87,535.05 766.87,535.05 762.92,536.47 758.98,537.56 755.03,538.37 751.09,538.93 747.14,539.26 743.20,539.37 739.26,539.26 735.31,538.93 731.37,538.37 727.42,537.56 723.48,536.47 719.53,535.05 719.53,535.05 718.74,534.71 717.95,534.36 717.16,533.99 716.38,533.60 715.59,533.19 714.80,532.76 714.01,532.29 713.22,531.81 712.43,531.28 711.64,530.73 710.85,530.13 710.06,529.49 709.27,528.79 708.49,528.03 707.70,527.18 706.91,526.23 706.12,525.14 705.33,523.81 704.54,522.07 703.75,517.77" style="stroke-width: 0.75;fill: #FFFFFF;" />
<g><text x="743.20" y="522.14" text-anchor="middle" style="font-family: TeX Gyre Heros;font-size: 12.00px;font-weight: 0;" textLength="60.69px" lengthAdjust="spacingAndGlyphs">Cholesterol</text></g>
<rect x="736.00" y="488.97" width="14.40" height="14.40" style="stroke-width: 0.75;fill: #FFFFFF;"/>
<g><text x="743.20" y="500.54" text-anchor="middle" style="font-family: TeX Gyre Heros;font-size: 12.00px;font-weight: 0;" textLength="6.67px" lengthAdjust="spacingAndGlyphs">8</text></g>
<rect x="682.65" y="584.53" width="30.00" height="14.40" style="stroke-width: 0.75;stroke: none;fill: #FFFFFF;"/>
<g><text x="697.65" y="596.11" text-anchor="middle" style="font-family: TeX Gyre Heros;font-size: 12.00px;font-weight: 0;" textLength="30.00px" lengthAdjust="spacingAndGlyphs">HIGH</text></g>
<rect x="763.08" y="584.53" width="51.34" height="14.40" style="stroke-width: 0.75;stroke: none;fill: #FFFFFF;"/>
<g><text x="788.75" y="596.11" text-anchor="middle" style="font-family: TeX Gyre Heros;font-size: 12.00px;font-weight: 0;" textLength="51.34px" lengthAdjust="spacingAndGlyphs">NORMAL</text></g>
<rect x="561.00" y="613.33" width="182.20" height="252.67" style="stroke-width: 0.75;stroke: none;fill: #FFFFFF;"/>
<g><text x="659.30" y="624.91" text-anchor="middle" style="font-family: TeX Gyre Heros;font-size: 12.00px;font-weight: 0;" textLength="83.71px" lengthAdjust="spacingAndGlyphs">Node 9 (n = 16)</text></g>
<polyline points="617.97,866.00 700.62,866.00" style="stroke-width: 0.75;"/>
<line x1="617.97" y1="866.00" x2="617.97" y2="873.20" style="stroke-width: 0.75;"/>
<line x1="638.64" y1="866.00" x2="638.64" y2="873.20" style="stroke-width: 0.75;"/>
<line x1="659.30" y1="866.00" x2="659.30" y2="873.20" style="stroke-width: 0.75;"/>
<line x1="679.96" y1="866.00" x2="679.96" y2="873.20" style="stroke-width: 0.75;"/>
<line x1="700.62" y1="866.00" x2="700.62" y2="873.20" style="stroke-width: 0.75;"/>
<g><text x="617.97" y="889.15" text-anchor="middle" style="font-family: TeX Gyre Heros;font-size: 12.00px;font-weight: 0;" textLength="32.03px" lengthAdjust="spacingAndGlyphs">drugA</text></g>
<g><text x="659.30" y="889.15" text-anchor="middle" style="font-family: TeX Gyre Heros;font-size: 12.00px;font-weight: 0;" textLength="32.68px" lengthAdjust="spacingAndGlyphs">drugC</text></g>
<g><text x="700.62" y="889.15" text-anchor="middle" style="font-family: TeX Gyre Heros;font-size: 12.00px;font-weight: 0;" textLength="32.03px" lengthAdjust="spacingAndGlyphs">drugY</text></g>
<polyline points="604.20,866.00 604.20,649.39" style="stroke-width: 0.75;"/>
<line x1="604.20" y1="866.00" x2="597.00" y2="866.00" style="stroke-width: 0.75;"/>
<line x1="604.20" y1="822.68" x2="597.00" y2="822.68" style="stroke-width: 0.75;"/>
<line x1="604.20" y1="779.36" x2="597.00" y2="779.36" style="stroke-width: 0.75;"/>
<line x1="604.20" y1="736.04" x2="597.00" y2="736.04" style="stroke-width: 0.75;"/>
<line x1="604.20" y1="692.72" x2="597.00" y2="692.72" style="stroke-width: 0.75;"/>
<line x1="604.20" y1="649.39" x2="597.00" y2="649.39" style="stroke-width: 0.75;"/>
<g><text x="589.80" y="870.37" text-anchor="end" style="font-family: TeX Gyre Heros;font-size: 12.00px;font-weight: 0;" textLength="6.67px" lengthAdjust="spacingAndGlyphs">0</text></g>
<g><text x="589.80" y="827.05" text-anchor="end" style="font-family: TeX Gyre Heros;font-size: 12.00px;font-weight: 0;" textLength="16.68px" lengthAdjust="spacingAndGlyphs">0.2</text></g>
<g><text x="589.80" y="783.73" text-anchor="end" style="font-family: TeX Gyre Heros;font-size: 12.00px;font-weight: 0;" textLength="16.68px" lengthAdjust="spacingAndGlyphs">0.4</text></g>
<g><text x="589.80" y="740.41" text-anchor="end" style="font-family: TeX Gyre Heros;font-size: 12.00px;font-weight: 0;" textLength="16.68px" lengthAdjust="spacingAndGlyphs">0.6</text></g>
<g><text x="589.80" y="697.09" text-anchor="end" style="font-family: TeX Gyre Heros;font-size: 12.00px;font-weight: 0;" textLength="16.68px" lengthAdjust="spacingAndGlyphs">0.8</text></g>
<g><text x="589.80" y="653.77" text-anchor="end" style="font-family: TeX Gyre Heros;font-size: 12.00px;font-weight: 0;" textLength="6.67px" lengthAdjust="spacingAndGlyphs">1</text></g>
<rect x="604.20" y="627.73" width="110.20" height="238.27" style="stroke-width: 0.75;"/>
</g><g clip-path="url(#c7)">
<rect x="611.09" y="866.00" width="13.77" height="0.00" style="stroke-width: 0.75;fill: #4D4D4D;"/>
<rect x="631.75" y="866.00" width="13.77" height="0.00" style="stroke-width: 0.75;fill: #888888;"/>
<rect x="652.41" y="649.39" width="13.77" height="216.61" style="stroke-width: 0.75;fill: #AEAEAE;"/>
<rect x="673.07" y="866.00" width="13.77" height="0.00" style="stroke-width: 0.75;fill: #CCCCCC;"/>
<rect x="693.74" y="866.00" width="13.77" height="0.00" style="stroke-width: 0.75;fill: #E6E6E6;"/>
<rect x="604.20" y="627.73" width="110.20" height="238.27" style="stroke-width: 0.75;"/>
</g><g clip-path="url(#c8)">
<rect x="743.20" y="613.33" width="182.20" height="252.67" style="stroke-width: 0.75;stroke: none;fill: #FFFFFF;"/>
<g><text x="841.50" y="624.91" text-anchor="middle" style="font-family: TeX Gyre Heros;font-size: 12.00px;font-weight: 0;" textLength="90.39px" lengthAdjust="spacingAndGlyphs">Node 10 (n = 17)</text></g>
<polyline points="800.17,866.00 882.82,866.00" style="stroke-width: 0.75;"/>
<line x1="800.17" y1="866.00" x2="800.17" y2="873.20" style="stroke-width: 0.75;"/>
<line x1="820.84" y1="866.00" x2="820.84" y2="873.20" style="stroke-width: 0.75;"/>
<line x1="841.50" y1="866.00" x2="841.50" y2="873.20" style="stroke-width: 0.75;"/>
<line x1="862.16" y1="866.00" x2="862.16" y2="873.20" style="stroke-width: 0.75;"/>
<line x1="882.82" y1="866.00" x2="882.82" y2="873.20" style="stroke-width: 0.75;"/>
<g><text x="800.17" y="889.15" text-anchor="middle" style="font-family: TeX Gyre Heros;font-size: 12.00px;font-weight: 0;" textLength="32.03px" lengthAdjust="spacingAndGlyphs">drugA</text></g>
<g><text x="841.50" y="889.15" text-anchor="middle" style="font-family: TeX Gyre Heros;font-size: 12.00px;font-weight: 0;" textLength="32.68px" lengthAdjust="spacingAndGlyphs">drugC</text></g>
<g><text x="882.82" y="889.15" text-anchor="middle" style="font-family: TeX Gyre Heros;font-size: 12.00px;font-weight: 0;" textLength="32.03px" lengthAdjust="spacingAndGlyphs">drugY</text></g>
<polyline points="786.40,866.00 786.40,649.39" style="stroke-width: 0.75;"/>
<line x1="786.40" y1="866.00" x2="779.20" y2="866.00" style="stroke-width: 0.75;"/>
<line x1="786.40" y1="822.68" x2="779.20" y2="822.68" style="stroke-width: 0.75;"/>
<line x1="786.40" y1="779.36" x2="779.20" y2="779.36" style="stroke-width: 0.75;"/>
<line x1="786.40" y1="736.04" x2="779.20" y2="736.04" style="stroke-width: 0.75;"/>
<line x1="786.40" y1="692.72" x2="779.20" y2="692.72" style="stroke-width: 0.75;"/>
<line x1="786.40" y1="649.39" x2="779.20" y2="649.39" style="stroke-width: 0.75;"/>
<g><text x="772.00" y="870.37" text-anchor="end" style="font-family: TeX Gyre Heros;font-size: 12.00px;font-weight: 0;" textLength="6.67px" lengthAdjust="spacingAndGlyphs">0</text></g>
<g><text x="772.00" y="827.05" text-anchor="end" style="font-family: TeX Gyre Heros;font-size: 12.00px;font-weight: 0;" textLength="16.68px" lengthAdjust="spacingAndGlyphs">0.2</text></g>
<g><text x="772.00" y="783.73" text-anchor="end" style="font-family: TeX Gyre Heros;font-size: 12.00px;font-weight: 0;" textLength="16.68px" lengthAdjust="spacingAndGlyphs">0.4</text></g>
<g><text x="772.00" y="740.41" text-anchor="end" style="font-family: TeX Gyre Heros;font-size: 12.00px;font-weight: 0;" textLength="16.68px" lengthAdjust="spacingAndGlyphs">0.6</text></g>
<g><text x="772.00" y="697.09" text-anchor="end" style="font-family: TeX Gyre Heros;font-size: 12.00px;font-weight: 0;" textLength="16.68px" lengthAdjust="spacingAndGlyphs">0.8</text></g>
<g><text x="772.00" y="653.77" text-anchor="end" style="font-family: TeX Gyre Heros;font-size: 12.00px;font-weight: 0;" textLength="6.67px" lengthAdjust="spacingAndGlyphs">1</text></g>
<rect x="786.40" y="627.73" width="110.20" height="238.27" style="stroke-width: 0.75;"/>
</g><g clip-path="url(#c9)">
<rect x="793.29" y="866.00" width="13.77" height="0.00" style="stroke-width: 0.75;fill: #4D4D4D;"/>
<rect x="813.95" y="866.00" width="13.77" height="0.00" style="stroke-width: 0.75;fill: #888888;"/>
<rect x="834.61" y="866.00" width="13.77" height="0.00" style="stroke-width: 0.75;fill: #AEAEAE;"/>
<rect x="855.27" y="649.39" width="13.77" height="216.61" style="stroke-width: 0.75;fill: #CCCCCC;"/>
<rect x="875.94" y="866.00" width="13.77" height="0.00" style="stroke-width: 0.75;fill: #E6E6E6;"/>
<rect x="786.40" y="627.73" width="110.20" height="238.27" style="stroke-width: 0.75;"/>
</g><g clip-path="url(#c10)">
<rect x="925.40" y="613.33" width="182.20" height="252.67" style="stroke-width: 0.75;stroke: none;fill: #FFFFFF;"/>
<g><text x="1023.70" y="624.91" text-anchor="middle" style="font-family: TeX Gyre Heros;font-size: 12.00px;font-weight: 0;" textLength="90.39px" lengthAdjust="spacingAndGlyphs">Node 11 (n = 92)</text></g>
<polyline points="982.37,866.00 1065.02,866.00" style="stroke-width: 0.75;"/>
<line x1="982.37" y1="866.00" x2="982.37" y2="873.20" style="stroke-width: 0.75;"/>
<line x1="1003.04" y1="866.00" x2="1003.04" y2="873.20" style="stroke-width: 0.75;"/>
<line x1="1023.70" y1="866.00" x2="1023.70" y2="873.20" style="stroke-width: 0.75;"/>
<line x1="1044.36" y1="866.00" x2="1044.36" y2="873.20" style="stroke-width: 0.75;"/>
<line x1="1065.02" y1="866.00" x2="1065.02" y2="873.20" style="stroke-width: 0.75;"/>
<g><text x="982.37" y="889.15" text-anchor="middle" style="font-family: TeX Gyre Heros;font-size: 12.00px;font-weight: 0;" textLength="32.03px" lengthAdjust="spacingAndGlyphs">drugA</text></g>
<g><text x="1023.70" y="889.15" text-anchor="middle" style="font-family: TeX Gyre Heros;font-size: 12.00px;font-weight: 0;" textLength="32.68px" lengthAdjust="spacingAndGlyphs">drugC</text></g>
<g><text x="1065.02" y="889.15" text-anchor="middle" style="font-family: TeX Gyre Heros;font-size: 12.00px;font-weight: 0;" textLength="32.03px" lengthAdjust="spacingAndGlyphs">drugY</text></g>
<polyline points="968.60,866.00 968.60,649.39" style="stroke-width: 0.75;"/>
<line x1="968.60" y1="866.00" x2="961.40" y2="866.00" style="stroke-width: 0.75;"/>
<line x1="968.60" y1="822.68" x2="961.40" y2="822.68" style="stroke-width: 0.75;"/>
<line x1="968.60" y1="779.36" x2="961.40" y2="779.36" style="stroke-width: 0.75;"/>
<line x1="968.60" y1="736.04" x2="961.40" y2="736.04" style="stroke-width: 0.75;"/>
<line x1="968.60" y1="692.72" x2="961.40" y2="692.72" style="stroke-width: 0.75;"/>
<line x1="968.60" y1="649.39" x2="961.40" y2="649.39" style="stroke-width: 0.75;"/>
<g><text x="954.20" y="870.37" text-anchor="end" style="font-family: TeX Gyre Heros;font-size: 12.00px;font-weight: 0;" textLength="6.67px" lengthAdjust="spacingAndGlyphs">0</text></g>
<g><text x="954.20" y="827.05" text-anchor="end" style="font-family: TeX Gyre Heros;font-size: 12.00px;font-weight: 0;" textLength="16.68px" lengthAdjust="spacingAndGlyphs">0.2</text></g>
<g><text x="954.20" y="783.73" text-anchor="end" style="font-family: TeX Gyre Heros;font-size: 12.00px;font-weight: 0;" textLength="16.68px" lengthAdjust="spacingAndGlyphs">0.4</text></g>
<g><text x="954.20" y="740.41" text-anchor="end" style="font-family: TeX Gyre Heros;font-size: 12.00px;font-weight: 0;" textLength="16.68px" lengthAdjust="spacingAndGlyphs">0.6</text></g>
<g><text x="954.20" y="697.09" text-anchor="end" style="font-family: TeX Gyre Heros;font-size: 12.00px;font-weight: 0;" textLength="16.68px" lengthAdjust="spacingAndGlyphs">0.8</text></g>
<g><text x="954.20" y="653.77" text-anchor="end" style="font-family: TeX Gyre Heros;font-size: 12.00px;font-weight: 0;" textLength="6.67px" lengthAdjust="spacingAndGlyphs">1</text></g>
<rect x="968.60" y="627.73" width="110.20" height="238.27" style="stroke-width: 0.75;"/>
</g><g clip-path="url(#c11)">
<rect x="975.49" y="866.00" width="13.77" height="0.00" style="stroke-width: 0.75;fill: #4D4D4D;"/>
<rect x="996.15" y="866.00" width="13.77" height="0.00" style="stroke-width: 0.75;fill: #888888;"/>
<rect x="1016.81" y="866.00" width="13.78" height="0.00" style="stroke-width: 0.75;fill: #AEAEAE;"/>
<rect x="1037.47" y="863.65" width="13.78" height="2.35" style="stroke-width: 0.75;fill: #CCCCCC;"/>
<rect x="1058.14" y="651.75" width="13.78" height="214.25" style="stroke-width: 0.75;fill: #E6E6E6;"/>
<rect x="968.60" y="627.73" width="110.20" height="238.27" style="stroke-width: 0.75;"/>
</g>
</svg>