<svg xmlns="http://www.w3.org/2000/svg" xmlns:xlink="http://www.w3.org/1999/xlink" class="httpgd" width="1122.00" height="902.00" viewBox="0 0 1122.00 902.00">
<defs>
  <style type='text/css'><![CDATA[
    .httpgd line, .httpgd polyline, .httpgd polygon, .httpgd path, .httpgd rect, .httpgd circle {
      fill: none;
      stroke: #000000;
      stroke-linecap: round;
      stroke-linejoin: round;
      stroke-miterlimit: 10.00;
    }
  ]]></style>
<clipPath id="c0"><rect x="0.00" y="0.00" width="1122.00" height="902.00"/></clipPath>
<clipPath id="c1"><rect x="59.04" y="59.04" width="1032.72" height="769.52"/></clipPath>
<clipPath id="c2"><rect x="0.00" y="0.00" width="1122.00" height="902.00"/></clipPath>
</defs>
<rect width="100%" height="100%" style="stroke: none;fill: #FFFFFF;"/>
<g clip-path="url(#c0)">
</g><g clip-path="url(#c1)">
<circle cx="617.00" cy="147.33" r="2.70" style="stroke-width: 0.75;stroke: #FF0000;fill: #FF0000;"/>
<circle cx="987.98" cy="311.25" r="2.70" style="stroke-width: 0.75;stroke: #FF0000;fill: #FF0000;"/>
<circle cx="762.10" cy="131.51" r="2.70" style="stroke-width: 0.75;stroke: #FF0000;fill: #FF0000;"/>
<circle cx="424.29" cy="370.62" r="2.70" style="stroke-width: 0.75;stroke: #FF0000;fill: #FF0000;"/>
<circle cx="822.96" cy="321.29" r="2.70" style="stroke-width: 0.75;stroke: #FF0000;fill: #FF0000;"/>
<circle cx="479.98" cy="476.61" r="2.70" style="stroke-width: 0.75;stroke: #FF0000;fill: #FF0000;"/>
<circle cx="835.15" cy="349.43" r="2.70" style="stroke-width: 0.75;stroke: #FF0000;fill: #FF0000;"/>
<circle cx="861.00" cy="340.34" r="2.70" style="stroke-width: 0.75;stroke: #FF0000;fill: #FF0000;"/>
<circle cx="631.70" cy="149.96" r="2.70" style="stroke-width: 0.75;stroke: #FF0000;fill: #FF0000;"/>
<circle cx="726.84" cy="312.85" r="2.70" style="stroke-width: 0.75;stroke: #FF0000;fill: #FF0000;"/>
<circle cx="428.35" cy="346.65" r="2.70" style="stroke-width: 0.75;stroke: #FF0000;fill: #FF0000;"/>
<circle cx="899.92" cy="163.79" r="2.70" style="stroke-width: 0.75;stroke: #FF0000;fill: #FF0000;"/>
<circle cx="424.80" cy="159.60" r="2.70" style="stroke-width: 0.75;stroke: #FF0000;fill: #FF0000;"/>
<circle cx="434.77" cy="345.83" r="2.70" style="stroke-width: 0.75;stroke: #FF0000;fill: #FF0000;"/>
<circle cx="710.79" cy="134.70" r="2.70" style="stroke-width: 0.75;stroke: #FF0000;fill: #FF0000;"/>
<circle cx="313.04" cy="325.19" r="2.70" style="stroke-width: 0.75;stroke: #FF0000;fill: #FF0000;"/>
<circle cx="474.58" cy="478.68" r="2.70" style="stroke-width: 0.75;stroke: #A020F0;fill: #A020F0;"/>
<circle cx="168.74" cy="370.10" r="2.70" style="stroke-width: 0.75;stroke: #A020F0;fill: #A020F0;"/>
<circle cx="239.80" cy="529.54" r="2.70" style="stroke-width: 0.75;stroke: #A020F0;fill: #A020F0;"/>
<circle cx="370.45" cy="267.11" r="2.70" style="stroke-width: 0.75;stroke: #A020F0;fill: #A020F0;"/>
<circle cx="399.46" cy="458.92" r="2.70" style="stroke-width: 0.75;stroke: #A020F0;fill: #A020F0;"/>
<circle cx="662.37" cy="257.21" r="2.70" style="stroke-width: 0.75;stroke: #A020F0;fill: #A020F0;"/>
<circle cx="137.88" cy="575.81" r="2.70" style="stroke-width: 0.75;stroke: #A020F0;fill: #A020F0;"/>
<circle cx="661.70" cy="266.31" r="2.70" style="stroke-width: 0.75;stroke: #A020F0;fill: #A020F0;"/>
<circle cx="568.32" cy="340.63" r="2.70" style="stroke-width: 0.75;stroke: #A020F0;fill: #A020F0;"/>
<circle cx="212.39" cy="530.66" r="2.70" style="stroke-width: 0.75;stroke: #A020F0;fill: #A020F0;"/>
<circle cx="141.05" cy="213.85" r="2.70" style="stroke-width: 0.75;stroke: #A020F0;fill: #A020F0;"/>
<circle cx="638.83" cy="199.67" r="2.70" style="stroke-width: 0.75;stroke: #A020F0;fill: #A020F0;"/>
<circle cx="990.22" cy="234.51" r="2.70" style="stroke-width: 0.75;stroke: #A020F0;fill: #A020F0;"/>
<circle cx="97.29" cy="87.54" r="2.70" style="stroke-width: 0.75;stroke: #A020F0;fill: #A020F0;"/>
<circle cx="655.06" cy="136.85" r="2.70" style="stroke-width: 0.75;stroke: #A020F0;fill: #A020F0;"/>
<circle cx="777.85" cy="281.31" r="2.70" style="stroke-width: 0.75;stroke: #A020F0;fill: #A020F0;"/>
<circle cx="189.11" cy="301.29" r="2.70" style="stroke-width: 0.75;stroke: #A020F0;fill: #A020F0;"/>
<circle cx="700.05" cy="242.62" r="2.70" style="stroke-width: 0.75;stroke: #A020F0;fill: #A020F0;"/>
<circle cx="1032.67" cy="99.34" r="2.70" style="stroke-width: 0.75;stroke: #A020F0;fill: #A020F0;"/>
<circle cx="961.45" cy="237.58" r="2.70" style="stroke-width: 0.75;stroke: #A020F0;fill: #A020F0;"/>
<circle cx="747.10" cy="160.92" r="2.70" style="stroke-width: 0.75;stroke: #A020F0;fill: #A020F0;"/>
<circle cx="249.82" cy="393.17" r="2.70" style="stroke-width: 0.75;stroke: #A020F0;fill: #A020F0;"/>
<circle cx="179.15" cy="243.98" r="2.70" style="stroke-width: 0.75;stroke: #A020F0;fill: #A020F0;"/>
<circle cx="250.70" cy="176.94" r="2.70" style="stroke-width: 0.75;stroke: #00FF08;fill: #00FF08;"/>
<circle cx="524.17" cy="101.14" r="2.70" style="stroke-width: 0.75;stroke: #00FF08;fill: #00FF08;"/>
<circle cx="888.60" cy="261.86" r="2.70" style="stroke-width: 0.75;stroke: #00FF08;fill: #00FF08;"/>
<circle cx="939.73" cy="155.22" r="2.70" style="stroke-width: 0.75;stroke: #00FF08;fill: #00FF08;"/>
<circle cx="567.13" cy="155.89" r="2.70" style="stroke-width: 0.75;stroke: #00FF08;fill: #00FF08;"/>
<circle cx="226.27" cy="284.52" r="2.70" style="stroke-width: 0.75;stroke: #00FF08;fill: #00FF08;"/>
<circle cx="400.95" cy="361.27" r="2.70" style="stroke-width: 0.75;stroke: #00FF08;fill: #00FF08;"/>
<circle cx="446.96" cy="494.74" r="2.70" style="stroke-width: 0.75;stroke: #00FF08;fill: #00FF08;"/>
<circle cx="160.23" cy="177.60" r="2.70" style="stroke-width: 0.75;stroke: #00FF08;fill: #00FF08;"/>
<circle cx="350.43" cy="521.30" r="2.70" style="stroke-width: 0.75;stroke: #00FF08;fill: #00FF08;"/>
<circle cx="139.19" cy="403.31" r="2.70" style="stroke-width: 0.75;stroke: #00FF08;fill: #00FF08;"/>
<circle cx="440.74" cy="195.77" r="2.70" style="stroke-width: 0.75;stroke: #00FF08;fill: #00FF08;"/>
<circle cx="322.95" cy="461.54" r="2.70" style="stroke-width: 0.75;stroke: #00FF08;fill: #00FF08;"/>
<circle cx="343.05" cy="455.10" r="2.70" style="stroke-width: 0.75;stroke: #00FF08;fill: #00FF08;"/>
<circle cx="365.79" cy="139.71" r="2.70" style="stroke-width: 0.75;stroke: #00FF08;fill: #00FF08;"/>
<circle cx="934.76" cy="112.30" r="2.70" style="stroke-width: 0.75;stroke: #00FF08;fill: #00FF08;"/>
<circle cx="448.36" cy="276.11" r="2.70" style="stroke-width: 0.75;stroke: #00FF08;fill: #00FF08;"/>
<circle cx="175.70" cy="280.10" r="2.70" style="stroke-width: 0.75;stroke: #00FF08;fill: #00FF08;"/>
<circle cx="633.79" cy="243.81" r="2.70" style="stroke-width: 0.75;stroke: #00FF08;fill: #00FF08;"/>
<circle cx="834.88" cy="133.18" r="2.70" style="stroke-width: 0.75;stroke: #00FF08;fill: #00FF08;"/>
<circle cx="638.95" cy="242.04" r="2.70" style="stroke-width: 0.75;stroke: #00FF08;fill: #00FF08;"/>
<circle cx="127.31" cy="251.33" r="2.70" style="stroke-width: 0.75;stroke: #00FF08;fill: #00FF08;"/>
<circle cx="528.38" cy="443.74" r="2.70" style="stroke-width: 0.75;stroke: #00FF08;fill: #00FF08;"/>
<circle cx="163.67" cy="488.11" r="2.70" style="stroke-width: 0.75;stroke: #00FF08;fill: #00FF08;"/>
<circle cx="405.73" cy="203.92" r="2.70" style="stroke-width: 0.75;stroke: #00FF08;fill: #00FF08;"/>
<circle cx="378.74" cy="218.95" r="2.70" style="stroke-width: 0.75;stroke: #00FF08;fill: #00FF08;"/>
<circle cx="184.62" cy="503.81" r="2.70" style="stroke-width: 0.75;stroke: #00FF08;fill: #00FF08;"/>
<circle cx="161.70" cy="98.99" r="2.70" style="stroke-width: 0.75;stroke: #00FF08;fill: #00FF08;"/>
<circle cx="544.07" cy="148.00" r="2.70" style="stroke-width: 0.75;stroke: #00FF08;fill: #00FF08;"/>
<circle cx="725.42" cy="380.51" r="2.70" style="stroke-width: 0.75;stroke: #00FF08;fill: #00FF08;"/>
<circle cx="293.95" cy="291.65" r="2.70" style="stroke-width: 0.75;stroke: #00FF08;fill: #00FF08;"/>
<circle cx="631.30" cy="134.99" r="2.70" style="stroke-width: 0.75;stroke: #00FF08;fill: #00FF08;"/>
<circle cx="127.11" cy="433.96" r="2.70" style="stroke-width: 0.75;stroke: #00FF08;fill: #00FF08;"/>
<circle cx="153.94" cy="243.04" r="2.70" style="stroke-width: 0.75;stroke: #00FF08;fill: #00FF08;"/>
<circle cx="216.14" cy="162.82" r="2.70" style="stroke-width: 0.75;stroke: #00FF08;fill: #00FF08;"/>
<circle cx="122.18" cy="591.23" r="2.70" style="stroke-width: 0.75;stroke: #00FF08;fill: #00FF08;"/>
<circle cx="792.06" cy="252.11" r="2.70" style="stroke-width: 0.75;stroke: #00FF08;fill: #00FF08;"/>
<circle cx="758.21" cy="122.19" r="2.70" style="stroke-width: 0.75;stroke: #00FF08;fill: #00FF08;"/>
<circle cx="688.95" cy="98.06" r="2.70" style="stroke-width: 0.75;stroke: #00FF08;fill: #00FF08;"/>
<circle cx="831.53" cy="240.22" r="2.70" style="stroke-width: 0.75;stroke: #00FF08;fill: #00FF08;"/>
<circle cx="152.17" cy="189.47" r="2.70" style="stroke-width: 0.75;stroke: #00FF08;fill: #00FF08;"/>
<circle cx="119.06" cy="202.73" r="2.70" style="stroke-width: 0.75;stroke: #00FF08;fill: #00FF08;"/>
<circle cx="721.50" cy="421.09" r="2.70" style="stroke-width: 0.75;stroke: #00FF08;fill: #00FF08;"/>
<circle cx="883.19" cy="277.18" r="2.70" style="stroke-width: 0.75;stroke: #00FF08;fill: #00FF08;"/>
<circle cx="101.61" cy="465.71" r="2.70" style="stroke-width: 0.75;stroke: #00FF08;fill: #00FF08;"/>
<circle cx="190.73" cy="539.17" r="2.70" style="stroke-width: 0.75;stroke: #00FF08;fill: #00FF08;"/>
<circle cx="329.00" cy="538.86" r="2.70" style="stroke-width: 0.75;stroke: #00FF08;fill: #00FF08;"/>
<circle cx="688.55" cy="349.16" r="2.70" style="stroke-width: 0.75;stroke: #00FF08;fill: #00FF08;"/>
<circle cx="615.85" cy="187.93" r="2.70" style="stroke-width: 0.75;stroke: #00FF08;fill: #00FF08;"/>
<circle cx="1020.73" cy="280.97" r="2.70" style="stroke-width: 0.75;stroke: #00FF08;fill: #00FF08;"/>
<circle cx="848.12" cy="211.36" r="2.70" style="stroke-width: 0.75;stroke: #00FF08;fill: #00FF08;"/>
<circle cx="217.52" cy="376.13" r="2.70" style="stroke-width: 0.75;stroke: #00FF08;fill: #00FF08;"/>
<circle cx="784.11" cy="371.63" r="2.70" style="stroke-width: 0.75;stroke: #00FF08;fill: #00FF08;"/>
<circle cx="540.11" cy="320.76" r="2.70" style="stroke-width: 0.75;stroke: #00FF08;fill: #00FF08;"/>
<circle cx="674.91" cy="365.56" r="2.70" style="stroke-width: 0.75;stroke: #0000FF;fill: #0000FF;"/>
<circle cx="573.36" cy="216.82" r="2.70" style="stroke-width: 0.75;stroke: #0000FF;fill: #0000FF;"/>
<circle cx="740.91" cy="210.66" r="2.70" style="stroke-width: 0.75;stroke: #0000FF;fill: #0000FF;"/>
<circle cx="1053.51" cy="130.95" r="2.70" style="stroke-width: 0.75;stroke: #0000FF;fill: #0000FF;"/>
<circle cx="239.53" cy="125.44" r="2.70" style="stroke-width: 0.75;stroke: #0000FF;fill: #0000FF;"/>
<circle cx="644.39" cy="196.89" r="2.70" style="stroke-width: 0.75;stroke: #0000FF;fill: #0000FF;"/>
<circle cx="285.29" cy="552.12" r="2.70" style="stroke-width: 0.75;stroke: #0000FF;fill: #0000FF;"/>
<circle cx="654.48" cy="141.57" r="2.70" style="stroke-width: 0.75;stroke: #0000FF;fill: #0000FF;"/>
<circle cx="192.95" cy="399.51" r="2.70" style="stroke-width: 0.75;stroke: #0000FF;fill: #0000FF;"/>
<circle cx="474.39" cy="442.70" r="2.70" style="stroke-width: 0.75;stroke: #0000FF;fill: #0000FF;"/>
<circle cx="161.30" cy="268.41" r="2.70" style="stroke-width: 0.75;stroke: #0000FF;fill: #0000FF;"/>
<circle cx="471.80" cy="297.45" r="2.70" style="stroke-width: 0.75;stroke: #0000FF;fill: #0000FF;"/>
<circle cx="436.13" cy="307.71" r="2.70" style="stroke-width: 0.75;stroke: #0000FF;fill: #0000FF;"/>
<circle cx="108.52" cy="149.71" r="2.70" style="stroke-width: 0.75;stroke: #0000FF;fill: #0000FF;"/>
<circle cx="939.31" cy="163.94" r="2.70" style="stroke-width: 0.75;stroke: #0000FF;fill: #0000FF;"/>
<circle cx="683.87" cy="300.96" r="2.70" style="stroke-width: 0.75;stroke: #0000FF;fill: #0000FF;"/>
<circle cx="803.47" cy="666.11" r="2.70" style="stroke-width: 0.75;stroke: #9D9D07;fill: #9D9D07;"/>
<circle cx="240.10" cy="669.21" r="2.70" style="stroke-width: 0.75;stroke: #9D9D07;fill: #9D9D07;"/>
<circle cx="796.47" cy="460.34" r="2.70" style="stroke-width: 0.75;stroke: #9D9D07;fill: #9D9D07;"/>
<circle cx="766.44" cy="428.00" r="2.70" style="stroke-width: 0.75;stroke: #9D9D07;fill: #9D9D07;"/>
<circle cx="159.93" cy="714.91" r="2.70" style="stroke-width: 0.75;stroke: #9D9D07;fill: #9D9D07;"/>
<circle cx="502.12" cy="624.09" r="2.70" style="stroke-width: 0.75;stroke: #9D9D07;fill: #9D9D07;"/>
<circle cx="402.49" cy="552.99" r="2.70" style="stroke-width: 0.75;stroke: #9D9D07;fill: #9D9D07;"/>
<circle cx="803.80" cy="587.51" r="2.70" style="stroke-width: 0.75;stroke: #9D9D07;fill: #9D9D07;"/>
<circle cx="903.23" cy="398.06" r="2.70" style="stroke-width: 0.75;stroke: #9D9D07;fill: #9D9D07;"/>
<circle cx="443.38" cy="743.42" r="2.70" style="stroke-width: 0.75;stroke: #9D9D07;fill: #9D9D07;"/>
<circle cx="185.64" cy="704.22" r="2.70" style="stroke-width: 0.75;stroke: #9D9D07;fill: #9D9D07;"/>
<circle cx="377.35" cy="755.34" r="2.70" style="stroke-width: 0.75;stroke: #9D9D07;fill: #9D9D07;"/>
<circle cx="843.72" cy="723.16" r="2.70" style="stroke-width: 0.75;stroke: #9D9D07;fill: #9D9D07;"/>
<circle cx="1001.30" cy="345.45" r="2.70" style="stroke-width: 0.75;stroke: #9D9D07;fill: #9D9D07;"/>
<circle cx="962.53" cy="733.15" r="2.70" style="stroke-width: 0.75;stroke: #9D9D07;fill: #9D9D07;"/>
<circle cx="234.15" cy="685.82" r="2.70" style="stroke-width: 0.75;stroke: #9D9D07;fill: #9D9D07;"/>
<circle cx="678.84" cy="747.87" r="2.70" style="stroke-width: 0.75;stroke: #9D9D07;fill: #9D9D07;"/>
<circle cx="457.01" cy="697.82" r="2.70" style="stroke-width: 0.75;stroke: #9D9D07;fill: #9D9D07;"/>
<circle cx="709.19" cy="538.33" r="2.70" style="stroke-width: 0.75;stroke: #9D9D07;fill: #9D9D07;"/>
<circle cx="891.30" cy="728.74" r="2.70" style="stroke-width: 0.75;stroke: #9D9D07;fill: #9D9D07;"/>
<circle cx="900.44" cy="522.29" r="2.70" style="stroke-width: 0.75;stroke: #9D9D07;fill: #9D9D07;"/>
<circle cx="695.45" cy="474.14" r="2.70" style="stroke-width: 0.75;stroke: #9D9D07;fill: #9D9D07;"/>
<circle cx="1035.57" cy="704.41" r="2.70" style="stroke-width: 0.75;stroke: #9D9D07;fill: #9D9D07;"/>
<circle cx="355.17" cy="673.25" r="2.70" style="stroke-width: 0.75;stroke: #9D9D07;fill: #9D9D07;"/>
<circle cx="243.87" cy="694.38" r="2.70" style="stroke-width: 0.75;stroke: #9D9D07;fill: #9D9D07;"/>
<circle cx="831.58" cy="686.06" r="2.70" style="stroke-width: 0.75;stroke: #9D9D07;fill: #9D9D07;"/>
<circle cx="455.92" cy="619.78" r="2.70" style="stroke-width: 0.75;stroke: #9D9D07;fill: #9D9D07;"/>
<circle cx="234.88" cy="800.06" r="2.70" style="stroke-width: 0.75;stroke: #9D9D07;fill: #9D9D07;"/>
<circle cx="1034.40" cy="472.64" r="2.70" style="stroke-width: 0.75;stroke: #9D9D07;fill: #9D9D07;"/>
<circle cx="335.41" cy="799.82" r="2.70" style="stroke-width: 0.75;stroke: #9D9D07;fill: #9D9D07;"/>
<circle cx="871.35" cy="565.97" r="2.70" style="stroke-width: 0.75;stroke: #9D9D07;fill: #9D9D07;"/>
<circle cx="873.63" cy="676.66" r="2.70" style="stroke-width: 0.75;stroke: #9D9D07;fill: #9D9D07;"/>
<circle cx="108.95" cy="794.60" r="2.70" style="stroke-width: 0.75;stroke: #9D9D07;fill: #9D9D07;"/>
<circle cx="253.42" cy="761.38" r="2.70" style="stroke-width: 0.75;stroke: #9D9D07;fill: #9D9D07;"/>
<circle cx="968.29" cy="517.18" r="2.70" style="stroke-width: 0.75;stroke: #9D9D07;fill: #9D9D07;"/>
<circle cx="928.25" cy="599.36" r="2.70" style="stroke-width: 0.75;stroke: #9D9D07;fill: #9D9D07;"/>
<circle cx="1029.80" cy="419.75" r="2.70" style="stroke-width: 0.75;stroke: #9D9D07;fill: #9D9D07;"/>
<circle cx="798.95" cy="587.93" r="2.70" style="stroke-width: 0.75;stroke: #9D9D07;fill: #9D9D07;"/>
<circle cx="878.97" cy="526.19" r="2.70" style="stroke-width: 0.75;stroke: #9D9D07;fill: #9D9D07;"/>
<circle cx="953.70" cy="380.42" r="2.70" style="stroke-width: 0.75;stroke: #9D9D07;fill: #9D9D07;"/>
<circle cx="810.17" cy="628.13" r="2.70" style="stroke-width: 0.75;stroke: #9D9D07;fill: #9D9D07;"/>
<circle cx="675.63" cy="526.45" r="2.70" style="stroke-width: 0.75;stroke: #9D9D07;fill: #9D9D07;"/>
<circle cx="714.91" cy="495.71" r="2.70" style="stroke-width: 0.75;stroke: #9D9D07;fill: #9D9D07;"/>
<circle cx="479.47" cy="520.85" r="2.70" style="stroke-width: 0.75;stroke: #9D9D07;fill: #9D9D07;"/>
<circle cx="961.43" cy="691.45" r="2.70" style="stroke-width: 0.75;stroke: #9D9D07;fill: #9D9D07;"/>
<circle cx="733.10" cy="727.83" r="2.70" style="stroke-width: 0.75;stroke: #9D9D07;fill: #9D9D07;"/>
<circle cx="852.08" cy="393.51" r="2.70" style="stroke-width: 0.75;stroke: #9D9D07;fill: #9D9D07;"/>
<circle cx="1031.31" cy="762.31" r="2.70" style="stroke-width: 0.75;stroke: #9D9D07;fill: #9D9D07;"/>
<circle cx="703.05" cy="686.22" r="2.70" style="stroke-width: 0.75;stroke: #9D9D07;fill: #9D9D07;"/>
<circle cx="734.71" cy="783.17" r="2.70" style="stroke-width: 0.75;stroke: #9D9D07;fill: #9D9D07;"/>
<circle cx="572.84" cy="541.89" r="2.70" style="stroke-width: 0.75;stroke: #9D9D07;fill: #9D9D07;"/>
<circle cx="967.92" cy="676.13" r="2.70" style="stroke-width: 0.75;stroke: #9D9D07;fill: #9D9D07;"/>
<circle cx="715.46" cy="588.35" r="2.70" style="stroke-width: 0.75;stroke: #9D9D07;fill: #9D9D07;"/>
<circle cx="201.60" cy="654.32" r="2.70" style="stroke-width: 0.75;stroke: #9D9D07;fill: #9D9D07;"/>
<circle cx="914.47" cy="492.37" r="2.70" style="stroke-width: 0.75;stroke: #9D9D07;fill: #9D9D07;"/>
<circle cx="413.93" cy="743.34" r="2.70" style="stroke-width: 0.75;stroke: #9D9D07;fill: #9D9D07;"/>
<circle cx="300.21" cy="781.43" r="2.70" style="stroke-width: 0.75;stroke: #9D9D07;fill: #9D9D07;"/>
<circle cx="297.38" cy="634.79" r="2.70" style="stroke-width: 0.75;stroke: #9D9D07;fill: #9D9D07;"/>
<circle cx="344.60" cy="718.86" r="2.70" style="stroke-width: 0.75;stroke: #9D9D07;fill: #9D9D07;"/>
<circle cx="249.57" cy="637.97" r="2.70" style="stroke-width: 0.75;stroke: #9D9D07;fill: #9D9D07;"/>
<circle cx="681.63" cy="698.08" r="2.70" style="stroke-width: 0.75;stroke: #9D9D07;fill: #9D9D07;"/>
<circle cx="941.91" cy="418.97" r="2.70" style="stroke-width: 0.75;stroke: #9D9D07;fill: #9D9D07;"/>
<circle cx="936.78" cy="737.45" r="2.70" style="stroke-width: 0.75;stroke: #9D9D07;fill: #9D9D07;"/>
<circle cx="641.37" cy="616.65" r="2.70" style="stroke-width: 0.75;stroke: #9D9D07;fill: #9D9D07;"/>
<circle cx="490.94" cy="798.62" r="2.70" style="stroke-width: 0.75;stroke: #9D9D07;fill: #9D9D07;"/>
<circle cx="953.36" cy="643.65" r="2.70" style="stroke-width: 0.75;stroke: #9D9D07;fill: #9D9D07;"/>
<circle cx="177.14" cy="736.56" r="2.70" style="stroke-width: 0.75;stroke: #9D9D07;fill: #9D9D07;"/>
<circle cx="227.75" cy="782.09" r="2.70" style="stroke-width: 0.75;stroke: #9D9D07;fill: #9D9D07;"/>
<circle cx="867.39" cy="406.22" r="2.70" style="stroke-width: 0.75;stroke: #9D9D07;fill: #9D9D07;"/>
<circle cx="656.14" cy="517.26" r="2.70" style="stroke-width: 0.75;stroke: #9D9D07;fill: #9D9D07;"/>
<circle cx="383.35" cy="717.60" r="2.70" style="stroke-width: 0.75;stroke: #9D9D07;fill: #9D9D07;"/>
<circle cx="688.89" cy="728.52" r="2.70" style="stroke-width: 0.75;stroke: #9D9D07;fill: #9D9D07;"/>
<circle cx="244.27" cy="686.87" r="2.70" style="stroke-width: 0.75;stroke: #9D9D07;fill: #9D9D07;"/>
<circle cx="944.73" cy="484.20" r="2.70" style="stroke-width: 0.75;stroke: #9D9D07;fill: #9D9D07;"/>
<circle cx="1033.88" cy="641.48" r="2.70" style="stroke-width: 0.75;stroke: #9D9D07;fill: #9D9D07;"/>
<circle cx="1007.07" cy="584.32" r="2.70" style="stroke-width: 0.75;stroke: #9D9D07;fill: #9D9D07;"/>
<circle cx="843.71" cy="478.70" r="2.70" style="stroke-width: 0.75;stroke: #9D9D07;fill: #9D9D07;"/>
<circle cx="700.50" cy="561.67" r="2.70" style="stroke-width: 0.75;stroke: #9D9D07;fill: #9D9D07;"/>
<circle cx="840.87" cy="513.75" r="2.70" style="stroke-width: 0.75;stroke: #9D9D07;fill: #9D9D07;"/>
<circle cx="762.81" cy="552.31" r="2.70" style="stroke-width: 0.75;stroke: #9D9D07;fill: #9D9D07;"/>
<circle cx="361.53" cy="583.69" r="2.70" style="stroke-width: 0.75;stroke: #9D9D07;fill: #9D9D07;"/>
<circle cx="785.87" cy="449.63" r="2.70" style="stroke-width: 0.75;stroke: #9D9D07;fill: #9D9D07;"/>
<circle cx="864.07" cy="611.58" r="2.70" style="stroke-width: 0.75;stroke: #9D9D07;fill: #9D9D07;"/>
<circle cx="278.18" cy="596.17" r="2.70" style="stroke-width: 0.75;stroke: #9D9D07;fill: #9D9D07;"/>
<circle cx="1027.17" cy="754.99" r="2.70" style="stroke-width: 0.75;stroke: #9D9D07;fill: #9D9D07;"/>
<circle cx="222.40" cy="784.62" r="2.70" style="stroke-width: 0.75;stroke: #9D9D07;fill: #9D9D07;"/>
<circle cx="977.29" cy="744.27" r="2.70" style="stroke-width: 0.75;stroke: #9D9D07;fill: #9D9D07;"/>
<circle cx="676.37" cy="617.33" r="2.70" style="stroke-width: 0.75;stroke: #9D9D07;fill: #9D9D07;"/>
<circle cx="746.84" cy="555.96" r="2.70" style="stroke-width: 0.75;stroke: #9D9D07;fill: #9D9D07;"/>
<circle cx="211.24" cy="638.66" r="2.70" style="stroke-width: 0.75;stroke: #9D9D07;fill: #9D9D07;"/>
<circle cx="757.66" cy="772.88" r="2.70" style="stroke-width: 0.75;stroke: #9D9D07;fill: #9D9D07;"/>
</g><g clip-path="url(#c2)">
<line x1="96.88" y1="828.56" x2="1063.04" y2="828.56" style="stroke-width: 0.75;"/>
<line x1="96.88" y1="828.56" x2="96.88" y2="835.76" style="stroke-width: 0.75;"/>
<line x1="338.42" y1="828.56" x2="338.42" y2="835.76" style="stroke-width: 0.75;"/>
<line x1="579.96" y1="828.56" x2="579.96" y2="835.76" style="stroke-width: 0.75;"/>
<line x1="821.50" y1="828.56" x2="821.50" y2="835.76" style="stroke-width: 0.75;"/>
<line x1="1063.04" y1="828.56" x2="1063.04" y2="835.76" style="stroke-width: 0.75;"/>
<g><text x="96.88" y="854.48" text-anchor="middle" style="font-family: TeX Gyre Heros;font-size: 12.00px;font-weight: 0;" textLength="16.68px" lengthAdjust="spacingAndGlyphs">0.5</text></g>
<g><text x="338.42" y="854.48" text-anchor="middle" style="font-family: TeX Gyre Heros;font-size: 12.00px;font-weight: 0;" textLength="16.68px" lengthAdjust="spacingAndGlyphs">0.6</text></g>
<g><text x="579.96" y="854.48" text-anchor="middle" style="font-family: TeX Gyre Heros;font-size: 12.00px;font-weight: 0;" textLength="16.68px" lengthAdjust="spacingAndGlyphs">0.7</text></g>
<g><text x="821.50" y="854.48" text-anchor="middle" style="font-family: TeX Gyre Heros;font-size: 12.00px;font-weight: 0;" textLength="16.68px" lengthAdjust="spacingAndGlyphs">0.8</text></g>
<g><text x="1063.04" y="854.48" text-anchor="middle" style="font-family: TeX Gyre Heros;font-size: 12.00px;font-weight: 0;" textLength="16.68px" lengthAdjust="spacingAndGlyphs">0.9</text></g>
<line x1="59.04" y1="800.32" x2="59.04" y2="85.01" style="stroke-width: 0.75;"/>
<line x1="59.04" y1="800.32" x2="51.84" y2="800.32" style="stroke-width: 0.75;"/>
<line x1="59.04" y1="681.10" x2="51.84" y2="681.10" style="stroke-width: 0.75;"/>
<line x1="59.04" y1="561.89" x2="51.84" y2="561.89" style="stroke-width: 0.75;"/>
<line x1="59.04" y1="442.67" x2="51.84" y2="442.67" style="stroke-width: 0.75;"/>
<line x1="59.04" y1="323.45" x2="51.84" y2="323.45" style="stroke-width: 0.75;"/>
<line x1="59.04" y1="204.23" x2="51.84" y2="204.23" style="stroke-width: 0.75;"/>
<line x1="59.04" y1="85.01" x2="51.84" y2="85.01" style="stroke-width: 0.75;"/>
<g><text transform="translate(41.76,800.32) rotate(-90.00)" text-anchor="middle" style="font-family: TeX Gyre Heros;font-size: 12.00px;font-weight: 0;" textLength="23.36px" lengthAdjust="spacingAndGlyphs">0.02</text></g>
<g><text transform="translate(41.76,681.10) rotate(-90.00)" text-anchor="middle" style="font-family: TeX Gyre Heros;font-size: 12.00px;font-weight: 0;" textLength="23.36px" lengthAdjust="spacingAndGlyphs">0.03</text></g>
<g><text transform="translate(41.76,561.89) rotate(-90.00)" text-anchor="middle" style="font-family: TeX Gyre Heros;font-size: 12.00px;font-weight: 0;" textLength="23.36px" lengthAdjust="spacingAndGlyphs">0.04</text></g>
<g><text transform="translate(41.76,442.67) rotate(-90.00)" text-anchor="middle" style="font-family: TeX Gyre Heros;font-size: 12.00px;font-weight: 0;" textLength="23.36px" lengthAdjust="spacingAndGlyphs">0.05</text></g>
<g><text transform="translate(41.76,323.45) rotate(-90.00)" text-anchor="middle" style="font-family: TeX Gyre Heros;font-size: 12.00px;font-weight: 0;" textLength="23.36px" lengthAdjust="spacingAndGlyphs">0.06</text></g>
<g><text transform="translate(41.76,204.23) rotate(-90.00)" text-anchor="middle" style="font-family: TeX Gyre Heros;font-size: 12.00px;font-weight: 0;" textLength="23.36px" lengthAdjust="spacingAndGlyphs">0.07</text></g>
<g><text transform="translate(41.76,85.01) rotate(-90.00)" text-anchor="middle" style="font-family: TeX Gyre Heros;font-size: 12.00px;font-weight: 0;" textLength="23.36px" lengthAdjust="spacingAndGlyphs">0.08</text></g>
<polygon points="59.04,828.56 1091.76,828.56 1091.76,59.04 59.04,59.04" style="stroke-width: 0.75;" />
<g><text x="575.40" y="34.77" text-anchor="middle" style="font-family: TeX Gyre Heros;font-size: 14.40px;font-weight: 0;" textLength="351.04px" lengthAdjust="spacingAndGlyphs">Graf s barevnými body podle hodnot v t_data$Drug</text></g>
<g><text x="575.40" y="883.28" text-anchor="middle" style="font-family: TeX Gyre Heros;font-size: 12.00px;font-weight: 0;" textLength="64.04px" lengthAdjust="spacingAndGlyphs">Hodnota Na</text></g>
<g><text transform="translate(12.96,443.80) rotate(-90.00)" text-anchor="middle" style="font-family: TeX Gyre Heros;font-size: 12.00px;font-weight: 0;" textLength="56.71px" lengthAdjust="spacingAndGlyphs">Hodnota K</text></g>
</g>
</svg>